<svg width="150" height="151" viewBox="0 0 150 151" fill="none" xmlns="http://www.w3.org/2000/svg">
<rect y="0.299988" width="150" height="150" rx="28" fill="#3C4A83"/>
<path d="M30.368 50.3V45.276H34.976V33.244H31.008V30.14L33.504 28.22H40.544V45.276H44.64V50.3H30.368ZM47.972 44.668V33.852C47.972 30.0973 49.8493 28.22 53.604 28.22H57.892C61.6467 28.22 63.524 30.0973 63.524 33.852V44.668C63.524 48.4227 61.6467 50.3 57.892 50.3H53.604C49.8493 50.3 47.972 48.4227 47.972 44.668ZM53.54 44.924C53.54 45.1587 53.6573 45.276 53.892 45.276H57.604C57.8387 45.276 57.956 45.1587 57.956 44.924V33.596C57.956 33.3613 57.8387 33.244 57.604 33.244H53.892C53.6573 33.244 53.54 33.3613 53.54 33.596V44.924ZM67.368 50.3V45.276H71.976V33.244H68.008V30.14L70.504 28.22H77.544V45.276H81.64V50.3H67.368Z" fill="#29C5EC"/>
<path d="M88.792 82.38V79.276H98.104C98.3387 79.276 98.456 79.1587 98.456 78.924V75.916C98.456 75.6813 98.3387 75.564 98.104 75.564H91.16V70.54H98.104C98.3387 70.54 98.456 70.4227 98.456 70.188V67.596C98.456 67.3613 98.3387 67.244 98.104 67.244H89.112V64.14L91.608 62.22H98.392C102.147 62.22 104.024 64.0973 104.024 67.852V69.74C104.024 70.5933 103.757 71.2867 103.224 71.82L102.104 72.94L103.224 74.06C103.757 74.5933 104.024 75.2867 104.024 76.14V78.668C104.024 82.4227 102.147 84.3 98.392 84.3H91.288L88.792 82.38ZM106.972 81.484V76.94L113.404 62.22H118.14L118.78 63.34L113.052 76.428H116.956V70.54H122.524V84.3H116.956V81.484H106.972ZM125.472 67.244V62.22H141.024V69.74L133.408 84.3H128.416L127.776 83.18L135.456 68.62V67.244H125.472Z" fill="#29C5EC"/>
<line x1="52.6447" y1="122.657" x2="98.6447" y2="25.6573" stroke="#29C5EC" stroke-width="3"/>
<path d="M76.472 110.3V102.876C76.472 99.8253 77.8053 98.0333 80.472 97.5L86.072 96.38C86.328 96.316 86.456 96.1453 86.456 95.868V93.596C86.456 93.3613 86.3387 93.244 86.104 93.244H77.112V90.14L79.608 88.22H86.392C90.1467 88.22 92.024 90.0973 92.024 93.852V95.9C92.024 98.9507 90.6907 100.743 88.024 101.276L82.424 102.396C82.168 102.46 82.04 102.631 82.04 102.908V105.276H92.024V110.3H76.472ZM95.292 108.38V105.276H104.604C104.839 105.276 104.956 105.159 104.956 104.924V101.916C104.956 101.681 104.839 101.564 104.604 101.564H97.66V96.54H104.604C104.839 96.54 104.956 96.4227 104.956 96.188V93.596C104.956 93.3613 104.839 93.244 104.604 93.244H95.612V90.14L98.108 88.22H104.892C108.647 88.22 110.524 90.0973 110.524 93.852V95.74C110.524 96.5933 110.257 97.2867 109.724 97.82L108.604 98.94L109.724 100.06C110.257 100.593 110.524 101.287 110.524 102.14V104.668C110.524 108.423 108.647 110.3 104.892 110.3H97.788L95.292 108.38Z" fill="#29C5EC"/>
<path d="M33.472 75.668V64.852C33.472 61.0973 35.3493 59.22 39.104 59.22H43.392C47.1467 59.22 49.024 61.0973 49.024 64.852V75.668C49.024 79.4227 47.1467 81.3 43.392 81.3H39.104C35.3493 81.3 33.472 79.4227 33.472 75.668ZM39.04 75.924C39.04 76.1587 39.1573 76.276 39.392 76.276H43.104C43.3387 76.276 43.456 76.1587 43.456 75.924V64.596C43.456 64.3613 43.3387 64.244 43.104 64.244H39.392C39.1573 64.244 39.04 64.3613 39.04 64.596V75.924ZM52.868 81.3V76.276H57.476V64.244H53.508V61.14L56.004 59.22H63.044V76.276H67.14V81.3H52.868Z" fill="#29C5EC"/>
</svg>
