<svg width="150" height="150" viewBox="0 0 150 150" fill="none" xmlns="http://www.w3.org/2000/svg">
<rect width="150" height="150" rx="28" fill="url(#paint0_linear)"/>
<path d="M20.61 42.045V36.55H37.62V44.775L29.29 60.7H23.83L23.13 59.475L31.53 43.55V42.045H20.61ZM40.8444 54.54V43.935C40.8444 39.0117 43.306 36.55 48.2294 36.55H53.7244L56.4544 38.65V42.045H48.0894C47.3194 42.045 46.9344 42.43 46.9344 43.2V45.3H51.6944C55.801 45.3 57.8544 47.3533 57.8544 51.46V54.54C57.8544 58.6467 55.801 60.7 51.6944 60.7H47.0044C42.8977 60.7 40.8444 58.6467 40.8444 54.54ZM46.9344 54.82C46.9344 55.0767 47.0627 55.205 47.3194 55.205H51.3794C51.636 55.205 51.7644 55.0767 51.7644 54.82V51.18C51.7644 50.9233 51.636 50.795 51.3794 50.795H46.9344V54.82ZM61.0788 54.54V51.81C61.0788 50.8767 61.3704 50.13 61.9538 49.57L63.1788 48.31L61.9538 47.12C61.3704 46.5133 61.0788 45.7433 61.0788 44.81V42.71C61.0788 38.6033 63.1321 36.55 67.2388 36.55H71.9288C76.0354 36.55 78.0888 38.6033 78.0888 42.71V44.81C78.0888 45.7433 77.7971 46.5133 77.2138 47.12L75.9888 48.31L77.2138 49.57C77.7971 50.13 78.0888 50.8767 78.0888 51.81V54.54C78.0888 58.6467 76.0354 60.7 71.9288 60.7H67.2388C63.1321 60.7 61.0788 58.6467 61.0788 54.54ZM67.1688 54.82C67.1688 55.0767 67.2971 55.205 67.5538 55.205H71.6138C71.8704 55.205 71.9988 55.0767 71.9988 54.82V51.53C71.9988 51.2733 71.8704 51.145 71.6138 51.145H67.5538C67.2971 51.145 67.1688 51.2733 67.1688 51.53V54.82ZM67.1688 45.265C67.1688 45.5217 67.2971 45.65 67.5538 45.65H71.6138C71.8704 45.65 71.9988 45.5217 71.9988 45.265V42.43C71.9988 42.1733 71.8704 42.045 71.6138 42.045H67.5538C67.2971 42.045 67.1688 42.1733 67.1688 42.43V45.265Z" fill="#98E53B"/>
<path d="M89.61 50.54V47.81C89.61 46.8767 89.9017 46.13 90.485 45.57L91.71 44.31L90.485 43.12C89.9017 42.5133 89.61 41.7433 89.61 40.81V38.71C89.61 34.6033 91.6633 32.55 95.77 32.55H100.46C104.567 32.55 106.62 34.6033 106.62 38.71V40.81C106.62 41.7433 106.328 42.5133 105.745 43.12L104.52 44.31L105.745 45.57C106.328 46.13 106.62 46.8767 106.62 47.81V50.54C106.62 54.6467 104.567 56.7 100.46 56.7H95.77C91.6633 56.7 89.61 54.6467 89.61 50.54ZM95.7 50.82C95.7 51.0767 95.8283 51.205 96.085 51.205H100.145C100.402 51.205 100.53 51.0767 100.53 50.82V47.53C100.53 47.2733 100.402 47.145 100.145 47.145H96.085C95.8283 47.145 95.7 47.2733 95.7 47.53V50.82ZM95.7 41.265C95.7 41.5217 95.8283 41.65 96.085 41.65H100.145C100.402 41.65 100.53 41.5217 100.53 41.265V38.43C100.53 38.1733 100.402 38.045 100.145 38.045H96.085C95.8283 38.045 95.7 38.1733 95.7 38.43V41.265Z" fill="#27D072"/>
<path d="M83.59 126V120.505H88.63V107.345H84.29V103.95L87.02 101.85H94.72V120.505H99.2V126H83.59ZM102.844 119.84V109.235C102.844 104.312 105.306 101.85 110.229 101.85H115.724L118.454 103.95V107.345H110.089C109.319 107.345 108.934 107.73 108.934 108.5V110.6H113.694C117.801 110.6 119.854 112.653 119.854 116.76V119.84C119.854 123.947 117.801 126 113.694 126H109.004C104.898 126 102.844 123.947 102.844 119.84ZM108.934 120.12C108.934 120.377 109.063 120.505 109.319 120.505H113.379C113.636 120.505 113.764 120.377 113.764 120.12V116.48C113.764 116.223 113.636 116.095 113.379 116.095H108.934V120.12Z" fill="#65E600"/>
<path d="M36.61 90.62V85.65L43.645 69.55H48.825L49.525 70.775L43.26 85.09H47.53V78.65H53.62V93.7H47.53V90.62H36.61ZM56.8444 87.54V84.81C56.8444 83.8767 57.136 83.13 57.7194 82.57L58.9444 81.31L57.7194 80.12C57.136 79.5133 56.8444 78.7433 56.8444 77.81V75.71C56.8444 71.6033 58.8977 69.55 63.0044 69.55H67.6944C71.801 69.55 73.8544 71.6033 73.8544 75.71V77.81C73.8544 78.7433 73.5627 79.5133 72.9794 80.12L71.7544 81.31L72.9794 82.57C73.5627 83.13 73.8544 83.8767 73.8544 84.81V87.54C73.8544 91.6467 71.801 93.7 67.6944 93.7H63.0044C58.8977 93.7 56.8444 91.6467 56.8444 87.54ZM62.9344 87.82C62.9344 88.0767 63.0627 88.205 63.3194 88.205H67.3794C67.636 88.205 67.7644 88.0767 67.7644 87.82V84.53C67.7644 84.2733 67.636 84.145 67.3794 84.145H63.3194C63.0627 84.145 62.9344 84.2733 62.9344 84.53V87.82ZM62.9344 78.265C62.9344 78.5217 63.0627 78.65 63.3194 78.65H67.3794C67.636 78.65 67.7644 78.5217 67.7644 78.265V75.43C67.7644 75.1733 67.636 75.045 67.3794 75.045H63.3194C63.0627 75.045 62.9344 75.1733 62.9344 75.43V78.265Z" fill="#65E600"/>
<path d="M81.61 78.825V75.71C81.61 71.6033 83.6633 69.55 87.77 69.55H92.46C96.5667 69.55 98.62 71.6033 98.62 75.71V86.315C98.62 91.2383 96.1583 93.7 91.235 93.7H85.39L82.66 91.6V88.205H91.375C92.145 88.205 92.53 87.82 92.53 87.05V84.95H87.77C83.6633 84.95 81.61 82.9083 81.61 78.825ZM87.7 79.07C87.7 79.3267 87.8283 79.455 88.085 79.455H92.53V75.43C92.53 75.1733 92.4017 75.045 92.145 75.045H88.085C87.8283 75.045 87.7 75.1733 87.7 75.43V79.07ZM101.844 87.54V76.935C101.844 72.0117 104.306 69.55 109.229 69.55H114.724L117.454 71.65V75.045H109.089C108.319 75.045 107.934 75.43 107.934 76.2V78.3H112.694C116.801 78.3 118.854 80.3533 118.854 84.46V87.54C118.854 91.6467 116.801 93.7 112.694 93.7H108.004C103.898 93.7 101.844 91.6467 101.844 87.54ZM107.934 87.82C107.934 88.0767 108.063 88.205 108.319 88.205H112.379C112.636 88.205 112.764 88.0767 112.764 87.82V84.18C112.764 83.9233 112.636 83.795 112.379 83.795H107.934V87.82Z" fill="#98E53B"/>
<path d="M112 60.7H84" stroke="#27D072" stroke-width="3"/>
<path d="M84 31.7V62.7" stroke="#27D072" stroke-width="3"/>
<defs>
<linearGradient id="paint0_linear" x1="75" y1="0" x2="75" y2="150" gradientUnits="userSpaceOnUse">
<stop stop-color="#E0DDE8"/>
<stop offset="1" stop-color="#F9F2F8"/>
</linearGradient>
</defs>
</svg>
