<svg width="150" height="150" viewBox="0 0 150 150" fill="none" xmlns="http://www.w3.org/2000/svg">
<rect width="150" height="150" rx="28" fill="url(#paint0_linear)"/>
<path d="M30.07 62V51.56C30.07 47.27 31.945 44.75 35.695 44L43.57 42.425C43.93 42.335 44.11 42.095 44.11 41.705V38.51C44.11 38.18 43.945 38.015 43.615 38.015H30.97V33.65L34.48 30.95H44.02C49.3 30.95 51.94 33.59 51.94 38.87V41.75C51.94 46.04 50.065 48.56 46.315 49.31L38.44 50.885C38.08 50.975 37.9 51.215 37.9 51.605V54.935H51.94V62H30.07Z" fill="#F6F6F6"/>
<path d="M66.61 75.82V69.43H73.63V62.05H80.38V69.43H87.4V75.82H80.38V83.2H73.63V75.82H66.61Z" fill="#F6F6F6"/>
<path d="M101.07 42.575V38.57C101.07 33.29 103.71 30.65 108.99 30.65H115.02C120.3 30.65 122.94 33.29 122.94 38.57V52.205C122.94 58.535 119.775 61.7 113.445 61.7H105.93L102.42 59V54.635H113.625C114.615 54.635 115.11 54.14 115.11 53.15V50.45H108.99C103.71 50.45 101.07 47.825 101.07 42.575ZM108.9 42.89C108.9 43.22 109.065 43.385 109.395 43.385H115.11V38.21C115.11 37.88 114.945 37.715 114.615 37.715H109.395C109.065 37.715 108.9 37.88 108.9 38.21V42.89Z" fill="#F6F6F6"/>
<path d="M100.62 113V108.635H114.615C114.945 108.635 115.11 108.47 115.11 108.14V103.46C115.11 103.13 114.945 102.965 114.615 102.965H101.07V84.65H121.59V91.715H108.9V95.9H115.02C120.3 95.9 122.94 98.54 122.94 103.82V107.78C122.94 113.06 120.3 115.7 115.02 115.7H104.13L100.62 113Z" fill="#F6F6F6"/>
<path d="M31.07 111.74V105.35L40.115 84.65H46.775L47.675 86.225L39.62 104.63H45.11V96.35H52.94V115.7H45.11V111.74H31.07Z" fill="#F6F6F6"/>
<line x1="21" y1="71.7" x2="63" y2="71.7" stroke="#F6F6F6" stroke-width="6"/>
<line x1="92" y1="71.7" x2="134" y2="71.7" stroke="#F6F6F6" stroke-width="6"/>
<defs>
<linearGradient id="paint0_linear" x1="75" y1="0" x2="75" y2="150" gradientUnits="userSpaceOnUse">
<stop stop-color="#FFA68D"/>
<stop offset="1" stop-color="#FD3A3A"/>
</linearGradient>
</defs>
</svg>
