<svg width="150" height="150" viewBox="0 0 150 150" fill="none" xmlns="http://www.w3.org/2000/svg">
<rect width="150" height="150" rx="28" fill="url(#paint0_linear)"/>
<path d="M30.07 42.875V38.87C30.07 33.59 32.71 30.95 37.99 30.95H44.02C49.3 30.95 51.94 33.59 51.94 38.87V52.505C51.94 58.835 48.775 62 42.445 62H34.93L31.42 59.3V54.935H42.625C43.615 54.935 44.11 54.44 44.11 53.45V50.75H37.99C32.71 50.75 30.07 48.125 30.07 42.875ZM37.9 43.19C37.9 43.52 38.065 43.685 38.395 43.685H44.11V38.51C44.11 38.18 43.945 38.015 43.615 38.015H38.395C38.065 38.015 37.9 38.18 37.9 38.51V43.19Z" fill="#F6F6F6"/>
<path d="M66.215 86.785L73.73 75.94L66.395 65.275L66.98 64.06H73.91L77.915 70.27L81.92 64.06H88.85L89.435 65.275L82.1 75.94L89.615 86.785L89.03 88H82.1L77.915 81.655L73.73 88H66.8L66.215 86.785Z" fill="#F6F6F6"/>
<path d="M101.07 61.7V51.26C101.07 46.97 102.945 44.45 106.695 43.7L114.57 42.125C114.93 42.035 115.11 41.795 115.11 41.405V38.21C115.11 37.88 114.945 37.715 114.615 37.715H101.97V33.35L105.48 30.65H115.02C120.3 30.65 122.94 33.29 122.94 38.57V41.45C122.94 45.74 121.065 48.26 117.315 49.01L109.44 50.585C109.08 50.675 108.9 50.915 108.9 51.305V54.635H122.94V61.7H101.07Z" fill="#F6F6F6"/>
<path d="M100.62 113V108.635H114.615C114.945 108.635 115.11 108.47 115.11 108.14V103.46C115.11 103.13 114.945 102.965 114.615 102.965H101.07V84.65H121.59V91.715H108.9V95.9H115.02C120.3 95.9 122.94 98.54 122.94 103.82V107.78C122.94 113.06 120.3 115.7 115.02 115.7H104.13L100.62 113Z" fill="#F6F6F6"/>
<path d="M31.07 115.7V105.26C31.07 100.97 32.945 98.45 36.695 97.7L44.57 96.125C44.93 96.035 45.11 95.795 45.11 95.405V92.21C45.11 91.88 44.945 91.715 44.615 91.715H31.97V87.35L35.48 84.65H45.02C50.3 84.65 52.94 87.29 52.94 92.57V95.45C52.94 99.74 51.065 102.26 47.315 103.01L39.44 104.585C39.08 104.675 38.9 104.915 38.9 105.305V108.635H52.94V115.7H31.07Z" fill="#F6F6F6"/>
<line x1="21" y1="71.7" x2="63" y2="71.7" stroke="#F6F6F6" stroke-width="6"/>
<line x1="92" y1="71.7" x2="134" y2="71.7" stroke="#F6F6F6" stroke-width="6"/>
<defs>
<linearGradient id="paint0_linear" x1="75" y1="0" x2="75" y2="196.5" gradientUnits="userSpaceOnUse">
<stop stop-color="#9BE15D"/>
<stop offset="1" stop-color="#00E3AE"/>
</linearGradient>
</defs>
</svg>
