<svg width="150" height="150" viewBox="0 0 150 150" fill="none" xmlns="http://www.w3.org/2000/svg">
<rect width="150" height="150" rx="28" fill="url(#paint0_linear)"/>
<path d="M19.368 118V112.976H23.976V100.944H20.008V97.84L22.504 95.92H29.544V112.976H33.64V118H19.368ZM36.972 112.368V101.552C36.972 97.7973 38.8493 95.92 42.604 95.92H46.892C50.6467 95.92 52.524 97.7973 52.524 101.552V112.368C52.524 116.123 50.6467 118 46.892 118H42.604C38.8493 118 36.972 116.123 36.972 112.368ZM42.54 112.624C42.54 112.859 42.6573 112.976 42.892 112.976H46.604C46.8387 112.976 46.956 112.859 46.956 112.624V101.296C46.956 101.061 46.8387 100.944 46.604 100.944H42.892C42.6573 100.944 42.54 101.061 42.54 101.296V112.624ZM55.472 112.368V101.552C55.472 97.7973 57.3493 95.92 61.104 95.92H65.392C69.1467 95.92 71.024 97.7973 71.024 101.552V112.368C71.024 116.123 69.1467 118 65.392 118H61.104C57.3493 118 55.472 116.123 55.472 112.368ZM61.04 112.624C61.04 112.859 61.1573 112.976 61.392 112.976H65.104C65.3387 112.976 65.456 112.859 65.456 112.624V101.296C65.456 101.061 65.3387 100.944 65.104 100.944H61.392C61.1573 100.944 61.04 101.061 61.04 101.296V112.624ZM73.972 112.368V101.552C73.972 97.7973 75.8493 95.92 79.604 95.92H83.892C87.6467 95.92 89.524 97.7973 89.524 101.552V112.368C89.524 116.123 87.6467 118 83.892 118H79.604C75.8493 118 73.972 116.123 73.972 112.368ZM79.54 112.624C79.54 112.859 79.6573 112.976 79.892 112.976H83.604C83.8387 112.976 83.956 112.859 83.956 112.624V101.296C83.956 101.061 83.8387 100.944 83.604 100.944H79.892C79.6573 100.944 79.54 101.061 79.54 101.296V112.624Z" fill="#F6F6F6"/>
<path d="M18.472 71.944V66.92H34.024V74.44L26.408 89H21.416L20.776 87.88L28.456 73.32V71.944H18.472ZM36.972 83.368V73.672C36.972 69.1707 39.2227 66.92 43.724 66.92H48.748L51.244 68.84V71.944H43.596C42.892 71.944 42.54 72.296 42.54 73V74.92H46.892C50.6467 74.92 52.524 76.7973 52.524 80.552V83.368C52.524 87.1227 50.6467 89 46.892 89H42.604C38.8493 89 36.972 87.1227 36.972 83.368ZM42.54 83.624C42.54 83.8587 42.6573 83.976 42.892 83.976H46.604C46.8387 83.976 46.956 83.8587 46.956 83.624V80.296C46.956 80.0613 46.8387 79.944 46.604 79.944H42.54V83.624ZM55.472 86.184V81.64L61.904 66.92H66.64L67.28 68.04L61.552 81.128H65.456V75.24H71.024V89H65.456V86.184H55.472Z" fill="#F6F6F6"/>
<path d="M18.472 60V52.576C18.472 49.5253 19.8053 47.7333 22.472 47.2L28.072 46.08C28.328 46.016 28.456 45.8453 28.456 45.568V43.296C28.456 43.0613 28.3387 42.944 28.104 42.944H19.112V39.84L21.608 37.92H28.392C32.1467 37.92 34.024 39.7973 34.024 43.552V45.6C34.024 48.6507 32.6907 50.4427 30.024 50.976L24.424 52.096C24.168 52.16 24.04 52.3307 24.04 52.608V54.976H34.024V60H18.472ZM36.972 57.184V52.64L43.404 37.92H48.14L48.78 39.04L43.052 52.128H46.956V46.24H52.524V60H46.956V57.184H36.972Z" fill="#F6F6F6"/>
<path d="M78.472 54.368V43.552C78.472 39.7973 80.3493 37.92 84.104 37.92H88.392C92.1467 37.92 94.024 39.7973 94.024 43.552V54.368C94.024 58.1227 92.1467 60 88.392 60H84.104C80.3493 60 78.472 58.1227 78.472 54.368ZM84.04 54.624C84.04 54.8587 84.1573 54.976 84.392 54.976H88.104C88.3387 54.976 88.456 54.8587 88.456 54.624V43.296C88.456 43.0613 88.3387 42.944 88.104 42.944H84.392C84.1573 42.944 84.04 43.0613 84.04 43.296V54.624ZM96.972 54.368V43.552C96.972 39.7973 98.8493 37.92 102.604 37.92H106.892C110.647 37.92 112.524 39.7973 112.524 43.552V54.368C112.524 58.1227 110.647 60 106.892 60H102.604C98.8493 60 96.972 58.1227 96.972 54.368ZM102.54 54.624C102.54 54.8587 102.657 54.976 102.892 54.976H106.604C106.839 54.976 106.956 54.8587 106.956 54.624V43.296C106.956 43.0613 106.839 42.944 106.604 42.944H102.892C102.657 42.944 102.54 43.0613 102.54 43.296V54.624ZM116.368 60V54.976H120.976V42.944H117.008V39.84L119.504 37.92H126.544V54.976H130.64V60H116.368Z" fill="#F6F6F6"/>
<path d="M97.472 81.368V70.552C97.472 66.7973 99.3493 64.92 103.104 64.92H107.392C111.147 64.92 113.024 66.7973 113.024 70.552V81.368C113.024 85.1227 111.147 87 107.392 87H103.104C99.3493 87 97.472 85.1227 97.472 81.368ZM103.04 81.624C103.04 81.8587 103.157 81.976 103.392 81.976H107.104C107.339 81.976 107.456 81.8587 107.456 81.624V70.296C107.456 70.0613 107.339 69.944 107.104 69.944H103.392C103.157 69.944 103.04 70.0613 103.04 70.296V81.624ZM116.868 87V81.976H121.476V69.944H117.508V66.84L120.004 64.92H127.044V81.976H131.14V87H116.868Z" fill="#F6F6F6"/>
<path d="M116.368 116V110.976H120.976V98.944H117.008V95.84L119.504 93.92H126.544V110.976H130.64V116H116.368Z" fill="#F6F6F6"/>
<path d="M116 128L44 20" stroke="#F6F6F6" stroke-width="3"/>
<defs>
<linearGradient id="paint0_linear" x1="75" y1="0" x2="75" y2="196.5" gradientUnits="userSpaceOnUse">
<stop stop-color="#C31432"/>
<stop offset="0.0001" stop-color="#F7971E"/>
<stop offset="1" stop-color="#FFD200"/>
</linearGradient>
</defs>
</svg>
