<svg id="Capa_1" enable-background="new 0 0 502 502" height="512" viewBox="0 0 502 502" width="512" xmlns="http://www.w3.org/2000/svg" xmlns:xlink="http://www.w3.org/1999/xlink"><linearGradient id="lg1"><stop offset=".0223" stop-color="#c1bfc5"/><stop offset="1" stop-color="#8d889d"/></linearGradient><linearGradient id="SVGID_1_" gradientUnits="userSpaceOnUse" x1="251" x2="251" xlink:href="#lg1" y1="502" y2="414.696"/><linearGradient id="SVGID_2_" gradientUnits="userSpaceOnUse" x1="251" x2="251" y1="365.185" y2="439.909"><stop offset="0" stop-color="#8d889d"/><stop offset=".9777" stop-color="#c1bfc5"/></linearGradient><linearGradient id="SVGID_3_" gradientUnits="userSpaceOnUse" x1="251" x2="251" y1="0" y2="352.948"><stop offset=".0005580357" stop-color="#f4e46a"/><stop offset=".9777" stop-color="#f7f0a9"/></linearGradient><linearGradient id="SVGID_4_" gradientUnits="userSpaceOnUse" x1="251" x2="251" y1="343.012" y2="228.899"><stop offset=".0223" stop-color="#8959c3"/><stop offset="1" stop-color="#a27ccf"/></linearGradient><linearGradient id="SVGID_5_" gradientUnits="userSpaceOnUse" x1="251" x2="251" y1="71.959" y2="244.203"><stop offset=".0212" stop-color="#ffb1db"/><stop offset="1" stop-color="#fd86c8"/></linearGradient><linearGradient id="SVGID_6_" gradientUnits="userSpaceOnUse" x1="251" x2="251" xlink:href="#lg1" y1="386.378" y2="332.848"/><g><path d="m191.939 414.696v47.082c0 22.214 18.008 40.222 40.222 40.222h37.678c22.214 0 40.222-18.008 40.222-40.222v-47.082z" fill="url(#SVGID_1_)"/><path d="m240.049 435.234-48.11-20.538v47.082c0 2.763.28 5.461.81 8.067h40.221c9.957 0 18.029-8.072 18.029-18.029.001-7.222-4.308-13.746-10.95-16.582z" fill="#938ea3"/><path d="m344.092 386.378-93.092-21.193-93.092 21.193c-14.782 0-26.765 11.983-26.765 26.765s11.983 26.765 26.765 26.765h186.183c14.782 0 26.765-11.983 26.765-26.765s-11.982-26.765-26.764-26.765z" fill="url(#SVGID_2_)"/><path d="m215.211 386.378h-57.303c-14.99 0-27.102 12.323-26.758 27.39.003.004.006.008.009.012 5.302 1.645 10.935 2.533 16.771 2.533h67.282c8.266 0 14.968-6.701 14.968-14.968-.001-8.265-6.702-14.967-14.969-14.967z" fill="#938ea3"/><path d="m364.841 352.948c0-62.588 60.923-71.789 60.923-171.822s-78.244-181.126-174.764-181.126-174.764 81.093-174.764 181.126 60.923 109.234 60.923 171.822z" fill="url(#SVGID_3_)"/><g><path d="m368.003 111.663c-3.709-6.954-7.98-13.66-12.693-19.932-3.312-4.405-2.424-10.661 1.98-13.972 4.408-3.312 10.663-2.423 13.972 1.981 5.33 7.091 10.159 14.672 14.35 22.531 2.594 4.863.754 10.907-4.108 13.501-4.906 2.613-10.93.713-13.501-4.109z" fill="#fff9da"/></g><g><path d="m332.181 68.458c-2.394-1.896-4.879-3.734-7.385-5.46-4.538-3.126-5.683-9.34-2.557-13.878s9.339-5.683 13.878-2.557c2.87 1.977 5.714 4.08 8.455 6.25 4.32 3.422 5.049 9.698 1.626 14.018-3.41 4.307-9.683 5.058-14.017 1.627z" fill="#fff9da"/></g><path d="m221.096 244.203c12.609 11.45 19.799 27.691 19.799 44.723v54.087h20.21v-54.087c0-17.032 7.19-33.273 19.799-44.723l-29.904-15.304z" fill="url(#SVGID_4_)"/><path d="m280.904 244.203-29.904-15.304-29.904 15.304c8.899 8.081 15.083 18.552 17.96 30h23.887c2.878-11.448 9.062-21.919 17.961-30z" fill="#8959c3"/><path d="m135.455 170.528c-2.001-5.281-3.106-11.003-3.106-16.985 0-25.083 19.263-45.654 43.8-47.76 6.029-19.588 24.267-33.826 45.832-33.826 10.909 0 20.962 3.649 29.019 9.785 8.057-6.136 18.11-9.785 29.019-9.785 21.565 0 39.803 14.238 45.832 33.826 24.537 2.105 43.8 22.677 43.8 47.76 0 5.982-1.105 11.704-3.106 16.985 12.243 6.638 20.574 19.606 20.574 34.48 0 21.614-17.58 39.194-39.194 39.194h-193.85c-21.614 0-39.194-17.58-39.194-39.194 0-14.874 8.331-27.842 20.574-34.48z" fill="url(#SVGID_5_)"/><g fill="#fd75be"><path d="m318.248 173.611c1.549 1.549 4.017 1.734 5.749.392 6.619-5.129 14.922-8.188 23.928-8.188 6.735 0 13.078 1.709 18.62 4.714 1.048-2.766 1.843-5.655 2.367-8.639-6.339-3.091-13.459-4.83-20.986-4.83-.42 0-.837.016-1.255.026-1.232-.429-2.594-.963-3.986-1.622-3.932-1.863-8.947-5.135-10.504-10.146-.718-2.309-3.172-3.599-5.481-2.883-2.309.718-3.6 3.172-2.883 5.481 1.567 5.043 4.932 8.837 8.751 11.668-5.081 1.721-9.783 4.265-13.939 7.482-2.075 1.607-2.237 4.689-.381 6.545z"/><path d="m256.366 120.559c5.063-.026 8.223-1.16 10.192-2.516 2.068-1.423 3.083-3.979 2.65-6.452-2.122-12.127-8.802-22.684-18.208-29.847 2.449-1.865 5.081-3.499 7.867-4.87 10.202 8.757 17.267 21.07 19.253 34.999.389 2.731 1.99 5.18 4.379 6.561 2.027 1.171 5.011 2.101 9.382 2.126 2.381.014 4.463 1.825 4.556 4.204.098 2.498-1.899 4.554-4.375 4.554-9.598 0-14.998-3.264-17.936-6.263-2.938 2.999-8.339 6.263-17.936 6.263-2.475 0-4.471-2.054-4.376-4.551.09-2.38 2.172-4.196 4.552-4.208z"/><path d="m133.087 161.89c.524 2.984 1.319 5.872 2.367 8.639 5.542-3.005 11.885-4.714 18.62-4.714 9.006 0 17.309 3.059 23.928 8.188 1.732 1.342 4.2 1.158 5.749-.392 1.856-1.856 1.694-4.938-.382-6.545-4.044-3.131-8.603-5.63-13.527-7.347 4.077-3.243 9.907-5.847 18.246-6.511 2.411-.192 4.21-2.302 4.017-4.713-.193-2.41-2.287-4.219-4.713-4.017-14.249 1.135-22.73 7.053-27.702 12.916-1.843-.216-3.716-.334-5.617-.334-7.527 0-14.646 1.739-20.986 4.83z"/><path d="m169.253 207.101c3.889 12.297 11.472 17.479 17.393 19.663 3.402-5.079 5.658-10.989 6.372-17.362.27-2.409 2.402-4.165 4.813-3.911 2.42.255 4.164 2.434 3.895 4.852-1.555 13.969-9.141 26.139-20.08 33.86h-27.571c10.271 0 19.625-3.978 26.62-10.466-6.674-3.154-15.32-9.855-19.792-23.994-.729-2.306.549-4.767 2.855-5.496 2.306-.728 4.765.549 5.495 2.854z"/><path d="m332.747 207.101c-3.889 12.297-11.472 17.479-17.393 19.663-3.402-5.079-5.658-10.989-6.372-17.362-.27-2.409-2.402-4.165-4.813-3.911-2.42.255-4.164 2.434-3.895 4.852 1.555 13.969 9.141 26.139 20.08 33.86h27.571c-10.271 0-19.625-3.978-26.62-10.466 6.674-3.154 15.32-9.855 19.792-23.994.729-2.306-.549-4.767-2.855-5.496-2.306-.728-4.765.549-5.495 2.854z"/></g><path d="m354.07 332.848h-206.14c-14.782 0-26.765 11.983-26.765 26.765s11.983 26.765 26.765 26.765h206.14c14.782 0 26.765-11.983 26.765-26.765s-11.983-26.765-26.765-26.765z" fill="url(#SVGID_6_)"/></g></svg>