<svg width="112" height="106" viewBox="0 0 112 106" fill="none" xmlns="http://www.w3.org/2000/svg">
<g clip-path="url(#clip0)">
<path d="M58.1522 32.2764L79.4415 92.4416" stroke="url(#paint0_linear)" stroke-width="8.94766" stroke-linecap="round"/>
<path d="M63.405 18.8549L95.177 91.516" stroke="url(#paint1_linear)" stroke-width="8.94766" stroke-linecap="round"/>
<path d="M57.6188 32.2764L40.2645 92.4416" stroke="url(#paint2_linear)" stroke-width="8.94766" stroke-linecap="round"/>
<path d="M36.1555 100.782L65.0587 20.5665L53.085 16.2522L24.1818 96.4679L36.1555 100.782Z" fill="url(#paint3_linear)"/>
<path d="M96.7724 96.4887L65.1373 17.3105L53.3185 22.0326L84.9535 101.211L96.7724 96.4887Z" fill="url(#paint4_linear)"/>
<path d="M51.8347 19.3177L24.0531 91.5159" stroke="url(#paint5_linear)" stroke-width="8.94766" stroke-linecap="round"/>
<path d="M103.091 6.36362H12.7273V19.0909H103.091V6.36362Z" fill="#F09819"/>
<path d="M51.8347 19.3177H15.2727" stroke="url(#paint6_linear)" stroke-width="8.94766" stroke-linecap="round"/>
<path d="M99.9669 5.47916H15.7355" stroke="url(#paint7_linear)" stroke-width="8.94766" stroke-linecap="round"/>
<path d="M100.403 18.9006H63.8408" stroke="url(#paint8_linear)" stroke-width="8.94766" stroke-linecap="round"/>
<path d="M40.2646 92.4416C34.5562 105.934 18.0497 103.086 23.6034 92.4416" stroke="url(#paint9_linear)" stroke-width="8.94766" stroke-linecap="round"/>
<path d="M79.4182 92.4416C85.0624 106.192 101.106 103.289 95.6143 92.4416" stroke="url(#paint10_linear)" stroke-width="8.94766" stroke-linecap="round"/>
<path d="M17.124 19.3345C6.94223 19.7973 6.4794 5.45021 15.7356 5.4502" stroke="#F09819" stroke-width="8.94766"/>
<path d="M99.0414 18.8716C109.22 19.3341 109.22 5.46116 99.967 5.46115" stroke="#F09819" stroke-width="8.94766"/>
</g>
<defs>
<linearGradient id="paint0_linear" x1="53.3997" y1="34.2458" x2="79.3788" y2="93.7222" gradientUnits="userSpaceOnUse">
<stop stop-color="#F09819"/>
<stop offset="1" stop-color="#FF5858"/>
</linearGradient>
<linearGradient id="paint1_linear" x1="63.8114" y1="21.2921" x2="95.0776" y2="93.0705" gradientUnits="userSpaceOnUse">
<stop stop-color="#F09819"/>
<stop offset="1" stop-color="#FF5858"/>
</linearGradient>
<linearGradient id="paint2_linear" x1="52.8664" y1="34.2458" x2="78.8453" y2="93.7222" gradientUnits="userSpaceOnUse">
<stop stop-color="#F09819"/>
<stop offset="1" stop-color="#FF5858"/>
</linearGradient>
<linearGradient id="paint3_linear" x1="55.9998" y1="17.8181" x2="28.6362" y2="96.0911" gradientUnits="userSpaceOnUse">
<stop stop-color="#F09819"/>
<stop offset="1" stop-color="#FF5858"/>
</linearGradient>
<linearGradient id="paint4_linear" x1="56.538" y1="21.2689" x2="88.0349" y2="97.9724" gradientUnits="userSpaceOnUse">
<stop stop-color="#F09819"/>
<stop offset="1" stop-color="#FF5858"/>
</linearGradient>
<linearGradient id="paint5_linear" x1="45.3909" y1="22.0168" x2="75.0946" y2="89.8763" gradientUnits="userSpaceOnUse">
<stop stop-color="#F09819"/>
<stop offset="1" stop-color="#FF5858"/>
</linearGradient>
<linearGradient id="paint6_linear" x1="15.2727" y1="19.8177" x2="51.8347" y2="19.8177" gradientUnits="userSpaceOnUse">
<stop stop-color="#F09819"/>
<stop offset="1" stop-color="#F09819"/>
</linearGradient>
<linearGradient id="paint7_linear" x1="-nan" y1="-nan" x2="-nan" y2="-nan" gradientUnits="userSpaceOnUse">
<stop stop-color="#F09819"/>
<stop offset="1" stop-color="#F09819"/>
</linearGradient>
<linearGradient id="paint8_linear" x1="63.8408" y1="19.4006" x2="100.403" y2="19.4006" gradientUnits="userSpaceOnUse">
<stop stop-color="#F09819"/>
<stop offset="1" stop-color="#F09819"/>
</linearGradient>
<linearGradient id="paint9_linear" x1="23.6034" y1="96.1441" x2="39.8017" y2="94.2929" gradientUnits="userSpaceOnUse">
<stop stop-color="#FF5858"/>
<stop offset="1" stop-color="#FD5A59"/>
</linearGradient>
<linearGradient id="paint10_linear" x1="95.6143" y1="96.2147" x2="79.586" y2="94.4375" gradientUnits="userSpaceOnUse">
<stop stop-color="#FF5858"/>
<stop offset="1" stop-color="#FD5A59"/>
</linearGradient>
<clipPath id="clip0">
<rect width="112" height="105.636" fill="white"/>
</clipPath>
</defs>
</svg>
