<svg width="150" height="150" viewBox="0 0 150 150" fill="none" xmlns="http://www.w3.org/2000/svg">
<rect width="150" height="150" rx="28" fill="url(#paint0_linear)"/>
<path d="M30.52 59.3V54.935H43.615C43.945 54.935 44.11 54.77 44.11 54.44V50.21C44.11 49.88 43.945 49.715 43.615 49.715H33.85V42.65H43.615C43.945 42.65 44.11 42.485 44.11 42.155V38.51C44.11 38.18 43.945 38.015 43.615 38.015H30.97V33.65L34.48 30.95H44.02C49.3 30.95 51.94 33.59 51.94 38.87V41.525C51.94 42.725 51.565 43.7 50.815 44.45L49.24 46.025L50.815 47.6C51.565 48.35 51.94 49.325 51.94 50.525V54.08C51.94 59.36 49.3 62 44.02 62H34.03L30.52 59.3Z" fill="#F6F6F6"/>
<path d="M67.61 76.12V69.73H88.4V76.12H67.61ZM74.99 84.49V78.46H81.02V84.49H74.99ZM74.99 67.39V61.36H81.02V67.39H74.99Z" fill="#F6F6F6"/>
<path d="M100.62 59V54.635H114.615C114.945 54.635 115.11 54.47 115.11 54.14V49.46C115.11 49.13 114.945 48.965 114.615 48.965H101.07V30.65H121.59V37.715H108.9V41.9H115.02C120.3 41.9 122.94 44.54 122.94 49.82V53.78C122.94 59.06 120.3 61.7 115.02 61.7H104.13L100.62 59Z" fill="#F6F6F6"/>
<path d="M101.07 96.575V92.57C101.07 87.29 103.71 84.65 108.99 84.65H115.02C120.3 84.65 122.94 87.29 122.94 92.57V106.205C122.94 112.535 119.775 115.7 113.445 115.7H105.93L102.42 113V108.635H113.625C114.615 108.635 115.11 108.14 115.11 107.15V104.45H108.99C103.71 104.45 101.07 101.825 101.07 96.575ZM108.9 96.89C108.9 97.22 109.065 97.385 109.395 97.385H115.11V92.21C115.11 91.88 114.945 91.715 114.615 91.715H109.395C109.065 91.715 108.9 91.88 108.9 92.21V96.89Z" fill="#F6F6F6"/>
<path d="M31.07 107.78V104.27C31.07 103.07 31.445 102.11 32.195 101.39L33.77 99.77L32.195 98.24C31.445 97.46 31.07 96.47 31.07 95.27V92.57C31.07 87.29 33.71 84.65 38.99 84.65H45.02C50.3 84.65 52.94 87.29 52.94 92.57V95.27C52.94 96.47 52.565 97.46 51.815 98.24L50.24 99.77L51.815 101.39C52.565 102.11 52.94 103.07 52.94 104.27V107.78C52.94 113.06 50.3 115.7 45.02 115.7H38.99C33.71 115.7 31.07 113.06 31.07 107.78ZM38.9 108.14C38.9 108.47 39.065 108.635 39.395 108.635H44.615C44.945 108.635 45.11 108.47 45.11 108.14V103.91C45.11 103.58 44.945 103.415 44.615 103.415H39.395C39.065 103.415 38.9 103.58 38.9 103.91V108.14ZM38.9 95.855C38.9 96.185 39.065 96.35 39.395 96.35H44.615C44.945 96.35 45.11 96.185 45.11 95.855V92.21C45.11 91.88 44.945 91.715 44.615 91.715H39.395C39.065 91.715 38.9 91.88 38.9 92.21V95.855Z" fill="#F6F6F6"/>
<line x1="21" y1="71.7" x2="63" y2="71.7" stroke="#F6F6F6" stroke-width="6"/>
<line x1="92" y1="71.7" x2="134" y2="71.7" stroke="#F6F6F6" stroke-width="6"/>
<defs>
<linearGradient id="paint0_linear" x1="75" y1="0" x2="75" y2="196.5" gradientUnits="userSpaceOnUse">
<stop stop-color="#0ACFFE"/>
<stop offset="1" stop-color="#495AFF"/>
</linearGradient>
</defs>
</svg>
