<svg width="150" height="150" viewBox="0 0 150 150" fill="none" xmlns="http://www.w3.org/2000/svg">
<rect width="150" height="150" rx="28" fill="url(#paint0_linear)"/>
<path d="M31.33 62V54.935H37.81V38.015H32.23V33.65L35.74 30.95H45.64V54.935H51.4V62H31.33Z" fill="#F6F6F6"/>
<path d="M70.8 74.47V68.08H84.75V74.47H70.8Z" fill="#F6F6F6"/>
<path d="M101.07 61.7V51.26C101.07 46.97 102.945 44.45 106.695 43.7L114.57 42.125C114.93 42.035 115.11 41.795 115.11 41.405V38.21C115.11 37.88 114.945 37.715 114.615 37.715H101.97V33.35L105.48 30.65H115.02C120.3 30.65 122.94 33.29 122.94 38.57V41.45C122.94 45.74 121.065 48.26 117.315 49.01L109.44 50.585C109.08 50.675 108.9 50.915 108.9 51.305V54.635H122.94V61.7H101.07Z" fill="#F6F6F6"/>
<path d="M101.07 91.715V84.65H122.94V95.225L112.23 115.7H105.21L104.31 114.125L115.11 93.65V91.715H101.07Z" fill="#F6F6F6"/>
<path d="M31.07 115.7V105.26C31.07 100.97 32.945 98.45 36.695 97.7L44.57 96.125C44.93 96.035 45.11 95.795 45.11 95.405V92.21C45.11 91.88 44.945 91.715 44.615 91.715H31.97V87.35L35.48 84.65H45.02C50.3 84.65 52.94 87.29 52.94 92.57V95.45C52.94 99.74 51.065 102.26 47.315 103.01L39.44 104.585C39.08 104.675 38.9 104.915 38.9 105.305V108.635H52.94V115.7H31.07Z" fill="#F6F6F6"/>
<line x1="21" y1="71.7" x2="63" y2="71.7" stroke="#F6F6F6" stroke-width="6"/>
<line x1="92" y1="71.7" x2="134" y2="71.7" stroke="#F6F6F6" stroke-width="6"/>
<defs>
<linearGradient id="paint0_linear" x1="75" y1="0" x2="75" y2="150" gradientUnits="userSpaceOnUse">
<stop stop-color="#667EEA"/>
<stop offset="1" stop-color="#764BA2"/>
</linearGradient>
</defs>
</svg>
