<svg width="150" height="150" viewBox="0 0 150 150" fill="none" xmlns="http://www.w3.org/2000/svg">
<rect width="150" height="150" rx="28" fill="url(#paint0_linear)"/>
<path d="M34.368 37V31.976H38.976V19.944H35.008V16.84L37.504 14.92H44.544V31.976H48.64V37H34.368ZM51.972 31.368V20.552C51.972 16.7973 53.8493 14.92 57.604 14.92H61.892C65.6467 14.92 67.524 16.7973 67.524 20.552V31.368C67.524 35.1227 65.6467 37 61.892 37H57.604C53.8493 37 51.972 35.1227 51.972 31.368ZM57.54 31.624C57.54 31.8587 57.6573 31.976 57.892 31.976H61.604C61.8387 31.976 61.956 31.8587 61.956 31.624V20.296C61.956 20.0613 61.8387 19.944 61.604 19.944H57.892C57.6573 19.944 57.54 20.0613 57.54 20.296V31.624Z" fill="#F6F6F6"/>
<path d="M34.368 66V60.976H38.976V48.944H35.008V45.84L37.504 43.92H44.544V60.976H48.64V66H34.368ZM52.868 66V60.976H57.476V48.944H53.508V45.84L56.004 43.92H63.044V60.976H67.14V66H52.868Z" fill="#F6F6F6"/>
<path d="M35.368 95V89.976H39.976V77.944H36.008V74.84L38.504 72.92H45.544V89.976H49.64V95H35.368ZM52.972 95V87.576C52.972 84.5253 54.3053 82.7333 56.972 82.2L62.572 81.08C62.828 81.016 62.956 80.8453 62.956 80.568V78.296C62.956 78.0613 62.8387 77.944 62.604 77.944H53.612V74.84L56.108 72.92H62.892C66.6467 72.92 68.524 74.7973 68.524 78.552V80.6C68.524 83.6507 67.1907 85.4427 64.524 85.976L58.924 87.096C58.668 87.16 58.54 87.3307 58.54 87.608V89.976H68.524V95H52.972Z" fill="#F6F6F6"/>
<path d="M35.368 124V118.976H39.976V106.944H36.008V103.84L38.504 101.92H45.544V118.976H49.64V124H35.368ZM53.292 122.08V118.976H62.604C62.8387 118.976 62.956 118.859 62.956 118.624V115.616C62.956 115.381 62.8387 115.264 62.604 115.264H55.66V110.24H62.604C62.8387 110.24 62.956 110.123 62.956 109.888V107.296C62.956 107.061 62.8387 106.944 62.604 106.944H53.612V103.84L56.108 101.92H62.892C66.6467 101.92 68.524 103.797 68.524 107.552V109.44C68.524 110.293 68.2573 110.987 67.724 111.52L66.604 112.64L67.724 113.76C68.2573 114.293 68.524 114.987 68.524 115.84V118.368C68.524 122.123 66.6467 124 62.892 124H55.788L53.292 122.08Z" fill="#F6F6F6"/>
<line x1="77.5" y1="142.015" x2="77.5" y2="8" stroke="#F6F6F6" stroke-width="3"/>
<path d="M85.544 35.976L91.784 14.92H100.104L106.344 35.976L105.672 37H101L99.912 33.064H91.976L90.888 37H86.216L85.544 35.976ZM93.448 28.04H98.44L96.136 19.944H95.752L93.448 28.04Z" fill="#F6F6F6"/>
<path d="M88.496 66V43.92H99.056C102.811 43.92 104.688 45.7973 104.688 49.552V51.312C104.688 52.0373 104.475 52.656 104.048 53.168L102.928 54.512L104.272 55.632C104.976 56.208 105.328 57.0613 105.328 58.192V60.368C105.328 64.1227 103.451 66 99.696 66H88.496ZM94.064 60.976H99.408C99.6427 60.976 99.76 60.8587 99.76 60.624V57.616C99.76 57.3813 99.6427 57.264 99.408 57.264H94.064V60.976ZM94.064 52.24H98.768C99.0027 52.24 99.12 52.1227 99.12 51.888V49.296C99.12 49.0613 99.0027 48.944 98.768 48.944H94.064V52.24Z" fill="#F6F6F6"/>
<path d="M87.176 89.368V78.552C87.176 74.7973 89.0533 72.92 92.808 72.92H101.096L103.592 74.84V77.944H93.096C92.8613 77.944 92.744 78.0613 92.744 78.296V89.624C92.744 89.8587 92.8613 89.976 93.096 89.976H103.592V93.08L101.096 95H92.808C89.0533 95 87.176 93.1227 87.176 89.368Z" fill="#F6F6F6"/>
<path d="M87.496 124V101.92H95.752C102.109 101.92 105.288 105.099 105.288 111.456V114.464C105.288 120.821 102.109 124 95.752 124H87.496ZM93.064 118.976H96.072C98.504 118.976 99.72 117.749 99.72 115.296V110.624C99.72 108.171 98.504 106.944 96.072 106.944H93.064V118.976Z" fill="#F6F6F6"/>
<defs>
<linearGradient id="paint0_linear" x1="75" y1="0" x2="75" y2="196.5" gradientUnits="userSpaceOnUse">
<stop stop-color="#C31432"/>
<stop offset="1" stop-color="#240B36"/>
</linearGradient>
</defs>
</svg>
