<svg width="64" height="61" viewBox="0 0 64 61" fill="none" xmlns="http://www.w3.org/2000/svg">
<path d="M33.2299 18.4436L45.3952 52.8237" stroke="#F6F6F6" stroke-width="2.55647" stroke-linecap="round"/>
<path d="M36.2315 10.7741L54.3869 52.2947" stroke="#F6F6F6" stroke-width="2.55647" stroke-linecap="round"/>
<path d="M32.925 18.4436L23.0082 52.8237" stroke="#F6F6F6" stroke-width="2.55647" stroke-linecap="round"/>
<path d="M19.7929 58.1996L36.6032 11.5457L29.3331 8.92616L12.5229 55.58L19.7929 58.1996Z" fill="#F6F6F6"/>
<path d="M55.5169 55.6832L37.2212 9.89166L30.4676 12.59L48.7632 58.3816L55.5169 55.6832Z" fill="#F6F6F6"/>
<path d="M29.6198 11.0387L13.7446 52.2948" stroke="#F6F6F6" stroke-width="2.55647" stroke-linecap="round"/>
<path d="M60 4H6V11H60V4Z" fill="#F6F6F6"/>
<path d="M29.6199 11.0387H8.72736" stroke="#F6F6F6" stroke-width="2.55647" stroke-linecap="round"/>
<path d="M57.124 3.13086H8.99176" stroke="#F6F6F6" stroke-width="2.55647" stroke-linecap="round"/>
<path d="M57.3728 10.8003H36.4803" stroke="#F6F6F6" stroke-width="2.55647" stroke-linecap="round"/>
<path d="M23.0085 52.8237C19.7465 60.5337 10.3142 58.9063 13.4877 52.8237" stroke="#F6F6F6" stroke-width="2.55647" stroke-linecap="round"/>
<path d="M45.382 52.8237C48.6072 60.681 57.7748 59.0224 54.6369 52.8237" stroke="#F6F6F6" stroke-width="2.55647" stroke-linecap="round"/>
<path d="M9.78478 11.0482C3.96664 11.3127 3.70217 3.11433 8.9914 3.11432" stroke="#F6F6F6" stroke-width="2.55647"/>
<path d="M56.595 10.7837C62.4112 11.048 62.4114 3.12061 57.1239 3.12061" stroke="#F6F6F6" stroke-width="2.55647"/>
</svg>
